<svg xmlns="http://www.w3.org/2000/svg" xmlns:xlink="http://www.w3.org/1999/xlink" preserveAspectRatio="xMidYMid" width="1000" height="525" viewBox="0 0 1000 525">
  <defs>
    <style>
      .cls-1 {
        fill: #d26cc0;
      }

      .cls-1, .cls-2 {
        fill-rule: evenodd;
      }

      .cls-2, .cls-3 {
        fill: #2a2a2a;
      }
    </style>
  </defs>
  <path d="M883.756,249.005 L883.756,301.029 L712.636,301.029 L712.636,16.283 L877.190,16.283 L877.190,68.506 L776.906,68.506 L776.906,131.849 L870.226,131.849 L870.226,183.874 L776.906,183.874 L776.906,249.005 L883.756,249.005 ZM524.206,305.994 C483.347,305.994 450.053,292.724 424.320,266.181 C398.583,239.641 385.718,205.056 385.718,162.429 C385.718,117.422 398.782,81.016 424.916,53.216 C451.048,25.417 485.670,11.517 528.782,11.517 C569.504,11.517 602.435,24.821 627.574,51.429 C652.710,78.037 665.280,113.119 665.280,156.670 C665.280,201.416 652.247,237.488 626.181,264.890 C600.115,292.292 566.121,305.994 524.206,305.994 ZM578.725,91.341 C566.121,74.928 548.879,66.719 526.991,66.719 C504.439,66.719 486.531,75.158 473.268,92.036 C460.002,108.915 453.370,131.254 453.370,159.053 C453.370,187.250 460.002,209.558 473.268,225.971 C486.531,242.387 503.910,250.593 525.400,250.593 C547.551,250.593 565.126,242.619 578.128,226.666 C591.127,210.715 597.628,188.575 597.628,160.245 C597.628,130.726 591.326,107.757 578.725,91.341 ZM275.286,130.658 C275.286,112.259 276.082,91.937 277.674,69.697 L276.082,69.697 C272.765,87.171 269.780,99.750 267.128,107.425 L200.272,301.029 L147.742,301.029 L79.692,109.411 C77.833,104.248 74.848,91.013 70.738,69.697 L68.948,69.697 C70.670,97.764 71.534,122.386 71.534,143.565 L71.534,301.029 L13.632,301.029 L13.632,16.283 L107.748,16.283 L166.048,185.066 C170.690,198.568 174.072,212.139 176.196,225.772 L177.390,225.772 C180.971,210.020 184.752,196.319 188.731,184.668 L247.032,16.283 L338.760,16.283 L338.760,301.029 L275.286,301.029 L275.286,130.658 Z" class="cls-1"/>
  <path d="M840.936,513.217 L840.936,440.731 C840.936,420.519 833.702,410.411 819.235,410.411 C812.256,410.411 806.511,413.087 802.002,418.437 C797.490,423.788 795.236,430.583 795.236,438.820 L795.236,513.217 L754.897,513.217 L754.897,382.767 L795.236,382.767 L795.236,403.405 L795.746,403.405 C805.362,387.525 819.363,379.582 837.745,379.582 C866.678,379.582 881.147,397.503 881.147,433.342 L881.147,513.217 L840.936,513.217 ZM655.710,513.217 L636.434,436.782 C635.157,431.686 634.433,426.124 634.264,420.093 L633.498,420.093 C632.901,426.718 632.050,432.112 630.945,436.272 L610.265,513.217 L568.394,513.217 L531.502,382.767 L572.607,382.767 L590.606,467.865 C591.456,471.858 592.094,476.699 592.521,482.388 L593.287,482.388 C593.712,476.444 594.477,471.432 595.584,467.356 L618.052,382.767 L656.476,382.767 L676.645,467.865 C677.156,469.989 677.750,474.916 678.432,482.643 L679.326,482.643 C679.751,477.718 680.431,472.792 681.368,467.865 L698.346,382.767 L735.749,382.767 L698.091,513.217 L655.710,513.217 ZM448.910,516.402 C427.123,516.402 409.995,510.309 397.529,498.121 C385.060,485.935 378.827,469.394 378.827,448.502 C378.827,426.931 385.294,410.051 398.231,397.863 C411.166,385.677 428.654,379.582 450.697,379.582 C472.398,379.582 489.418,385.677 501.758,397.863 C514.097,410.051 520.268,426.166 520.268,446.209 C520.268,467.865 513.906,484.980 501.184,497.548 C488.460,510.118 471.036,516.402 448.910,516.402 ZM449.931,410.411 C440.399,410.411 432.995,413.682 427.719,420.221 C422.441,426.761 419.804,436.017 419.804,447.992 C419.804,473.047 429.931,485.573 450.186,485.573 C469.504,485.573 479.164,472.706 479.164,446.973 C479.164,422.599 469.418,410.411 449.931,410.411 ZM337.978,516.402 C309.553,516.402 295.341,501.668 295.341,472.197 L295.341,412.450 L274.151,412.450 L274.151,382.767 L295.341,382.767 L295.341,354.613 L335.552,343.148 L335.552,382.767 L364.913,382.767 L364.913,412.450 L335.552,412.450 L335.552,465.190 C335.552,478.779 340.956,485.573 351.765,485.573 C356.019,485.573 360.401,484.343 364.913,481.879 L364.913,511.688 C358.955,514.829 349.977,516.402 337.978,516.402 Z" class="cls-2"/>
  <rect x="945.844" y="17.906" width="40.75" height="495.063" class="cls-3"/>
</svg>
